<svg width="938" height="539" viewBox="0 0 938 539" fill="none" xmlns="http://www.w3.org/2000/svg">
<path fill-rule="evenodd" clip-rule="evenodd" d="M408.748 505.246L409.537 504.851C425.472 513.591 441.302 522.496 457.024 531.567L468.917 538.428L480.859 531.654C510.789 514.676 540.679 497.618 570.53 480.478H666.49V425.021C671.777 421.946 677.064 418.867 682.349 415.787V480.478H762.205V384.548H778.088V480.478H937.946V294.778H717.506C717.411 263.882 716.911 232.981 716.007 202.076L715.828 195.954L715.983 193.063C717.014 173.837 717.357 154.6 717.014 135.35L716.772 121.816L705.065 115.021C642.907 78.946 580.685 42.8445 518.402 6.71649C514.868 4.55923 510.143 2.77813 504.518 2.77813C499.762 2.77813 495.644 4.05271 492.352 5.75016C491.508 5.37403 490.66 5.00691 489.807 4.64878L478.732 0L469.006 5.70643L458.874 0.180038L448.228 4.64877C447.276 5.04845 446.33 5.45932 445.39 5.88141L434.401 0.386988L424.244 4.64237C417.808 7.33855 411.86 10.9359 406.518 15.4547L400.327 20.6913L398.581 28.6093C398.233 30.1857 397.941 31.7695 397.703 33.3595C370.117 48.9125 342.616 64.6285 315.197 80.5075C314.792 80.3171 314.387 80.1291 313.98 79.9434L304.389 75.5675L294.677 79.6702C288.453 82.3 282.642 85.6786 277.312 89.8115L268.018 97.0177V107.695L256.751 102.062L246.161 107.128C240.6 109.788 235.361 112.967 230.483 116.68L221.766 123.314L221.067 134.246C219.848 153.291 219.674 172.494 220.542 191.852L221.1 204.324L232.018 211.271V294.778H0V480.478H343.888L351.087 484.603C362.786 491.305 374.468 497.981 386.135 504.63L397.277 510.98L408.748 505.246Z" fill="#E2947B"/>
<path opacity="0.989" fill-rule="evenodd" clip-rule="evenodd" d="M474.445 17.0392C472.669 18.0814 470.853 19.0624 468.998 19.9823L458.196 14.0903L452.873 16.3246C450.288 17.4097 447.754 18.5847 445.271 19.8497L433.959 14.1937L428.881 16.3214C423.534 18.5615 418.643 21.5268 414.268 25.2276L411.172 27.8459L410.299 31.8049C409.605 34.9503 409.174 38.1453 408.996 41.3819C377.749 58.9684 346.609 76.7643 315.575 94.7695C313.428 93.5917 311.235 92.4924 308.999 91.472L304.203 89.284L299.348 91.3353C294.058 93.5699 289.153 96.4259 284.665 99.906L280.018 103.509V115.527C278.336 116.594 276.691 117.707 275.082 118.865C272.831 119.82 270.607 120.838 268.408 121.918L256.634 116.031L251.339 118.564C246.493 120.882 241.957 123.639 237.75 126.84L233.392 130.157L233.042 135.623C231.852 154.227 231.682 172.995 232.53 191.926L232.809 198.162L244.024 205.299C244.097 207.174 244.098 209.051 244.026 210.933L244.018 211.161V354.015C242.16 355.046 240.334 356.137 238.54 357.288L233.816 360.317L233.112 365.884C231.845 375.913 231.667 386.099 232.562 396.426L233.083 402.431L238.212 405.599C246.099 410.47 254.042 415.203 262.042 419.796L267.626 423.002L279.753 416.938C303.41 429.982 326.821 443.397 349.984 457.181C350.159 460.445 350.593 463.69 351.286 466.911L352.41 472.142L357.052 474.802C368.743 481.5 380.417 488.171 392.076 494.815L397.647 497.99L403.383 495.123C405.525 494.052 407.659 492.985 409.786 491.922C427.664 501.669 445.409 511.622 463.021 521.784L468.967 525.214L474.939 521.827C545.872 481.591 616.582 440.9 687.067 399.753L692.648 396.495L693 390.043C694.016 371.432 694.354 352.807 694.016 334.172L694.016 334.168C693.893 327.498 693.958 320.833 694.212 314.171L694.461 314.013C696.294 312.846 698.126 311.68 699.959 310.514L705.529 306.97L705.518 300.369C705.463 267.931 704.962 235.487 704.012 203.038L703.822 196.54L703.813 196.534L704 193.032C705.016 174.091 705.354 155.14 705.016 136.175L704.895 129.408L699.041 126.011C636.84 89.9107 574.575 53.784 512.248 17.6308C510.231 16.3789 507.607 15.3893 504.518 15.3893C501.703 15.3893 499.275 16.2105 497.34 17.3031C495.713 18.0853 494.102 18.8911 492.509 19.7204C490.108 18.5045 487.659 17.3726 485.162 16.3246L479.625 14.0002L474.445 17.0392Z" fill="#2B2832"/>
<path opacity="0.981" fill-rule="evenodd" clip-rule="evenodd" d="M693.018 136.389C677.314 145.908 661.314 154.908 645.018 163.389C630.294 154.608 615.461 145.941 600.518 137.389C599.83 136.557 599.997 135.891 601.018 135.389C604.352 134.058 607.352 132.224 610.018 129.889C602.852 125.138 595.518 120.638 588.018 116.389C591.389 114.043 594.722 111.71 598.018 109.389C594.521 106.806 590.854 104.473 587.018 102.389C582.818 105.156 578.484 107.323 574.018 108.889C566.685 104.556 559.351 100.222 552.018 95.8892C555.351 93.8892 558.685 91.8892 562.018 89.8892C563.351 89.2225 563.351 88.5559 562.018 87.8892C546.556 79.2556 531.222 70.4223 516.018 61.3892C512.018 63.7225 508.018 66.0559 504.018 68.3892C484.515 56.8032 464.848 45.4698 445.018 34.3892C441.101 36.597 437.268 38.9303 433.518 41.3892C429.74 38.9191 425.907 36.5858 422.018 34.3892C425.426 31.5064 429.26 29.173 433.518 27.3892C437.518 29.3892 441.518 31.3892 445.518 33.3892C449.363 31.1334 453.363 29.1333 457.518 27.3892C461.185 29.3892 464.851 31.3892 468.518 33.3892C472.673 31.645 476.673 29.645 480.518 27.3892C484.673 29.1333 488.673 31.1334 492.518 33.3892C495.923 31.4359 499.423 29.6025 503.018 27.8892C504.018 27.2225 505.018 27.2225 506.018 27.8892C568.414 64.0826 630.748 100.249 693.018 136.389Z" fill="#63FB20"/>
<path opacity="0.994" fill-rule="evenodd" clip-rule="evenodd" d="M422.018 34.3892C425.907 36.5858 429.74 38.9191 433.518 41.3892C437.268 38.9303 441.101 36.597 445.018 34.3892C464.848 45.4698 484.515 56.8032 504.018 68.3892C508.018 66.0559 512.018 63.7225 516.018 61.3892C531.222 70.4223 546.556 79.2556 562.018 87.8892C563.351 88.5559 563.351 89.2225 562.018 89.8892C558.685 91.8892 555.351 93.8892 552.018 95.8892C559.351 100.222 566.685 104.556 574.018 108.889C578.484 107.323 582.818 105.156 587.018 102.389C590.854 104.473 594.521 106.806 598.018 109.389C594.722 111.71 591.389 114.043 588.018 116.389C595.518 120.638 602.852 125.138 610.018 129.889C607.352 132.224 604.352 134.058 601.018 135.389C599.997 135.891 599.83 136.557 600.518 137.389C615.461 145.941 630.294 154.608 645.018 163.389C645.018 163.722 645.018 164.056 645.018 164.389C641.191 166.135 637.525 168.135 634.018 170.389C622.158 163.873 610.325 157.206 598.518 150.389C598.185 145.722 597.851 141.056 597.518 136.389C594.185 134.389 590.851 132.389 587.518 130.389C587.185 125.722 586.851 121.056 586.518 116.389C582.768 118.848 578.935 121.181 575.018 123.389C567.102 118.848 559.269 114.182 551.518 109.389C551.346 104.687 550.846 100.021 550.018 95.3892C538.97 88.5324 527.637 82.1991 516.018 76.3892C512.054 78.3711 508.054 80.3711 504.018 82.3892C484.6 70.9296 465.1 59.5963 445.518 48.3892C441.354 50.4702 437.354 52.8035 433.518 55.3892C429.539 52.6516 425.373 50.3182 421.018 48.3892C420.699 43.5259 421.032 38.8592 422.018 34.3892Z" fill="#4DD72B"/>
<path opacity="0.998" fill-rule="evenodd" clip-rule="evenodd" d="M421.018 48.3892C425.373 50.3182 429.539 52.6516 433.518 55.3892C437.354 52.8035 441.354 50.4702 445.518 48.3892C465.1 59.5963 484.6 70.9296 504.018 82.3892C508.054 80.3711 512.054 78.3711 516.018 76.3892C527.637 82.1991 538.97 88.5324 550.018 95.3892C550.846 100.021 551.346 104.687 551.518 109.389C559.269 114.182 567.102 118.848 575.018 123.389C578.935 121.181 582.768 118.848 586.518 116.389C586.851 121.056 587.185 125.722 587.518 130.389C590.851 132.389 594.185 134.389 597.518 136.389C597.851 141.056 598.185 145.722 598.518 150.389C610.325 157.206 622.158 163.873 634.018 170.389C634.018 170.722 634.018 171.056 634.018 171.389C626.347 175.222 619.014 179.555 612.018 184.389C610.21 184.38 608.543 184.88 607.018 185.889C603.597 187.588 600.597 189.754 598.018 192.389C555.368 216.695 512.702 241.028 470.018 265.389C466.827 264.797 463.827 263.63 461.018 261.889C432.46 245.113 403.793 228.613 375.018 212.389C375.339 207.194 375.005 202.194 374.018 197.389C366.486 192.791 358.82 188.457 351.018 184.389C351.018 175.389 351.018 166.389 351.018 157.389C347.557 154.82 343.89 152.486 340.018 150.389C340.184 145.71 340.017 141.044 339.518 136.389C339.135 135.833 338.635 135.5 338.018 135.389C330.658 131.377 323.324 127.377 316.018 123.389C316.018 118.389 316.018 113.389 316.018 108.389C350.883 88.1244 385.883 68.1244 421.018 48.3892Z" fill="#38C3FE"/>
<path fill-rule="evenodd" clip-rule="evenodd" d="M515.018 115.389C511.715 118.047 508.382 120.714 505.018 123.389C508.522 125.307 511.855 127.473 515.018 129.889C507.435 134.263 499.935 138.763 492.518 143.389C488.768 140.93 484.935 138.597 481.018 136.389C477.018 138.722 473.018 141.056 469.018 143.389C461.102 138.848 453.269 134.182 445.518 129.389C441.682 131.975 437.682 134.308 433.518 136.389C430.035 133.745 426.202 131.745 422.018 130.389C417.744 131.859 413.744 133.859 410.018 136.389C398.487 129.458 386.82 122.791 375.018 116.389C390.17 106.642 405.837 97.6418 422.018 89.3892C429.81 93.453 437.476 97.7863 445.018 102.389C449.054 100.371 453.054 98.3711 457.018 96.3892C461.24 97.9445 465.24 99.9445 469.018 102.389C473.218 99.1138 477.884 97.2805 483.018 96.8892C493.549 103.32 504.215 109.487 515.018 115.389Z" fill="#FEFEFE"/>
<path opacity="0.92" fill-rule="evenodd" clip-rule="evenodd" d="M315.018 108.389C311.885 111.461 308.218 113.795 304.018 115.389C300.027 113.394 296.027 111.394 292.018 109.389C295.664 106.562 299.664 104.229 304.018 102.389C307.834 104.131 311.501 106.131 315.018 108.389Z" fill="#63FA20"/>
<path opacity="0.994" fill-rule="evenodd" clip-rule="evenodd" d="M316.018 123.389C323.324 127.377 330.658 131.377 338.018 135.389C338.104 136.385 337.77 137.218 337.018 137.889C333.684 139.22 330.684 141.054 328.018 143.389C331.745 146.25 335.745 148.584 340.018 150.389C343.89 152.486 347.557 154.82 351.018 157.389C346.912 159.277 342.912 161.443 339.018 163.889C342.854 165.973 346.521 168.306 350.018 170.889C347.018 172.722 344.018 174.556 341.018 176.389C339.997 176.891 339.83 177.557 340.518 178.389C343.906 180.617 347.406 182.617 351.018 184.389C358.82 188.457 366.486 192.791 374.018 197.389C370.557 199.958 366.89 202.292 363.018 204.389C323.685 181.722 284.351 159.056 245.018 136.389C248.553 133.698 252.387 131.365 256.518 129.389C260.518 131.389 264.518 133.389 268.518 135.389C272.587 133.144 276.754 131.144 281.018 129.389C284.479 131.958 288.145 134.292 292.018 136.389C296.123 134.501 300.123 132.335 304.018 129.889C300.182 127.805 296.515 125.472 293.018 122.889C296.684 120.722 300.351 118.556 304.018 116.389C308.045 118.734 312.045 121.067 316.018 123.389Z" fill="#63FB21"/>
<path fill-rule="evenodd" clip-rule="evenodd" d="M515.018 115.389C516.341 124.897 516.341 134.564 515.018 144.389C507.273 148.343 499.773 152.677 492.518 157.389C488.768 154.93 484.935 152.597 481.018 150.389C477.018 152.722 473.018 155.056 469.018 157.389C461.102 152.848 453.269 148.182 445.518 143.389C441.682 145.975 437.682 148.308 433.518 150.389C429.727 148.244 425.893 146.244 422.018 144.389C417.744 145.859 413.744 147.859 410.018 150.389C398.848 143.636 387.514 137.136 376.018 130.889C375.049 126.152 374.715 121.319 375.018 116.389C386.82 122.791 398.487 129.458 410.018 136.389C413.744 133.859 417.744 131.859 422.018 130.389C426.202 131.745 430.035 133.745 433.518 136.389C437.682 134.308 441.682 131.975 445.518 129.389C453.269 134.182 461.102 138.848 469.018 143.389C473.018 141.056 477.018 138.722 481.018 136.389C484.935 138.597 488.768 140.93 492.518 143.389C499.935 138.763 507.435 134.263 515.018 129.889C511.855 127.473 508.522 125.307 505.018 123.389C508.382 120.714 511.715 118.047 515.018 115.389Z" fill="#C1E0EA"/>
<path opacity="0.919" fill-rule="evenodd" clip-rule="evenodd" d="M292.018 122.389C292.018 127.056 292.018 131.722 292.018 136.389C288.145 134.292 284.479 131.958 281.018 129.389C284.479 126.82 288.145 124.486 292.018 122.389Z" fill="#39C3FC"/>
<path opacity="0.999" fill-rule="evenodd" clip-rule="evenodd" d="M315.018 108.389C315.351 108.389 315.684 108.389 316.018 108.389C316.018 113.389 316.018 118.389 316.018 123.389C312.045 121.067 308.045 118.734 304.018 116.389C300.351 118.556 296.684 120.722 293.018 122.889C296.515 125.472 300.182 127.805 304.018 129.889C300.123 132.335 296.123 134.501 292.018 136.389C292.018 131.722 292.018 127.056 292.018 122.389C292.018 118.056 292.018 113.722 292.018 109.389C296.027 111.394 300.027 113.394 304.018 115.389C308.218 113.795 311.885 111.461 315.018 108.389Z" fill="#37B230"/>
<path opacity="0.995" fill-rule="evenodd" clip-rule="evenodd" d="M245.018 136.389C284.351 159.056 323.685 181.722 363.018 204.389C363.018 213.389 363.018 222.389 363.018 231.389C359.245 229.668 355.579 227.668 352.018 225.389C351.018 243.377 350.685 261.377 351.018 279.389C347.259 276.843 343.259 274.843 339.018 273.389C338.852 282.395 339.018 291.395 339.518 300.389C343.099 302.263 346.599 304.263 350.018 306.389C350.685 311.389 351.351 316.389 352.018 321.389C359.181 325.136 366.181 329.136 373.018 333.389C373.846 338.021 374.346 342.687 374.518 347.389C393.687 358.975 413.02 370.308 432.518 381.389C433.351 394.735 433.184 408.068 432.018 421.389C429.179 419.469 426.179 417.802 423.018 416.389C422.02 425.03 421.687 433.697 422.018 442.389C422.083 442.827 421.917 443.161 421.518 443.389C417.74 440.919 413.907 438.586 410.018 436.389C406.585 433.83 402.919 431.497 399.018 429.389C398.018 447.71 397.685 466.044 398.018 484.389C386.368 477.75 374.702 471.083 363.018 464.389C362.025 459.769 361.691 455.103 362.018 450.389C363.166 445.908 363.333 441.241 362.518 436.389C359.147 434.189 355.647 432.189 352.018 430.389C351.351 411.722 350.685 393.056 350.018 374.389C346.389 372.589 342.889 370.589 339.518 368.389C339.35 359.038 338.85 349.705 338.018 340.389C334.599 338.263 331.099 336.263 327.518 334.389C327.35 325.038 326.85 315.705 326.018 306.389C322.685 304.389 319.351 302.389 316.018 300.389C315.189 295.757 314.689 291.091 314.518 286.389C311.435 284.264 308.269 282.264 305.018 280.389C304.189 275.757 303.689 271.091 303.518 266.389C295.851 261.722 288.184 257.056 280.518 252.389C280.346 247.687 279.846 243.021 279.018 238.389C275.684 236.389 272.351 234.389 269.018 232.389C268.189 227.757 267.689 223.091 267.518 218.389C263.74 215.919 259.906 213.586 256.018 211.389C256.183 207.043 256.017 202.71 255.518 198.389C251.851 196.056 248.184 193.722 244.518 191.389C243.689 172.884 243.855 154.551 245.018 136.389Z" fill="#4CD628"/>
<path opacity="0.998" fill-rule="evenodd" clip-rule="evenodd" d="M338.018 135.389C338.635 135.5 339.135 135.833 339.518 136.389C340.017 141.044 340.184 145.71 340.018 150.389C335.745 148.584 331.745 146.25 328.018 143.389C330.684 141.054 333.684 139.22 337.018 137.889C337.77 137.218 338.104 136.385 338.018 135.389Z" fill="#3BB440"/>
<path fill-rule="evenodd" clip-rule="evenodd" d="M445.018 170.389C441.247 172.448 437.58 174.781 434.018 177.389C437.745 180.25 441.745 182.584 446.018 184.389C449.89 186.486 453.557 188.82 457.018 191.389C445.158 197.905 433.325 204.572 421.518 211.389C410.101 204.43 398.601 197.596 387.018 190.889C390.685 188.722 394.351 186.556 398.018 184.389C395.15 182.357 392.15 180.524 389.018 178.889C388.266 178.218 387.932 177.385 388.018 176.389C395.104 171.977 402.438 167.977 410.018 164.389C413.982 166.371 417.982 168.371 422.018 170.389C425.744 167.859 429.744 165.859 434.018 164.389C437.835 166.13 441.501 168.13 445.018 170.389Z" fill="#FEFEFE"/>
<path opacity="0.998" fill-rule="evenodd" clip-rule="evenodd" d="M351.018 157.389C351.018 166.389 351.018 175.389 351.018 184.389C347.406 182.617 343.906 180.617 340.518 178.389C339.83 177.557 339.997 176.891 341.018 176.389C344.018 174.556 347.018 172.722 350.018 170.889C346.521 168.306 342.854 165.973 339.018 163.889C342.912 161.443 346.912 159.277 351.018 157.389Z" fill="#37B22F"/>
<path fill-rule="evenodd" clip-rule="evenodd" d="M445.018 170.389C446.004 174.859 446.337 179.526 446.018 184.389C441.745 182.584 437.745 180.25 434.018 177.389C437.58 174.781 441.247 172.448 445.018 170.389Z" fill="#BDDFEB"/>
<path fill-rule="evenodd" clip-rule="evenodd" d="M634.018 171.389C634.318 175.988 633.985 180.488 633.018 184.889C629.423 186.602 625.923 188.436 622.518 190.389C618.564 189.001 615.064 187.001 612.018 184.389C619.014 179.555 626.347 175.222 634.018 171.389Z" fill="#1791DD"/>
<path fill-rule="evenodd" clip-rule="evenodd" d="M388.018 176.389C387.932 177.385 388.266 178.218 389.018 178.889C392.15 180.524 395.15 182.357 398.018 184.389C394.351 186.556 390.685 188.722 387.018 190.889C398.601 197.596 410.101 204.43 421.518 211.389C433.325 204.572 445.158 197.905 457.018 191.389C457.345 196.103 457.011 200.769 456.018 205.389C444.6 212.182 433.1 218.849 421.518 225.389C410.264 218.344 398.764 211.677 387.018 205.389C385.853 196.073 385.686 186.74 386.518 177.389C386.901 176.833 387.401 176.5 388.018 176.389Z" fill="#C1E0EA"/>
<path opacity="0.995" fill-rule="evenodd" clip-rule="evenodd" d="M598.018 192.389C597.852 201.062 598.018 209.729 598.518 218.389C602.177 220.56 605.677 222.893 609.018 225.389C597.769 231.93 586.602 238.596 575.518 245.389C575.346 250.091 574.846 254.757 574.018 259.389C570.685 261.389 567.351 263.389 564.018 265.389C563.19 270.021 562.69 274.687 562.518 279.389C558.851 281.722 555.185 284.056 551.518 286.389C550.851 300.056 550.851 313.722 551.518 327.389C558.935 332.015 566.435 336.515 574.018 340.889C574.955 341.581 575.621 341.414 576.018 340.389C579.685 338.389 583.351 336.389 587.018 334.389C586.852 339.068 587.019 343.734 587.518 348.389C591.326 350.542 595.16 352.542 599.018 354.389C602.685 352.389 606.351 350.389 610.018 348.389C609.851 361.726 610.018 375.06 610.518 388.389C618.269 393.182 626.102 397.848 634.018 402.389C634.625 402.265 634.958 401.932 635.018 401.389C642.708 397.458 650.208 393.125 657.518 388.389C657.69 383.687 658.19 379.021 659.018 374.389C662.437 372.263 665.937 370.263 669.518 368.389C669.686 359.038 670.186 349.705 671.018 340.389C674.579 338.11 678.245 336.11 682.018 334.389C682.351 352.734 682.018 371.068 681.018 389.389C610.575 430.511 539.908 471.177 469.018 511.389C468.688 429.318 469.021 347.318 470.018 265.389C512.702 241.028 555.368 216.695 598.018 192.389Z" fill="#1691DE"/>
<path fill-rule="evenodd" clip-rule="evenodd" d="M374.018 197.389C375.005 202.194 375.339 207.194 375.018 212.389C375.184 216.735 375.017 221.068 374.518 225.389C371.024 228.052 367.191 230.052 363.018 231.389C363.018 222.389 363.018 213.389 363.018 204.389C366.89 202.292 370.557 199.958 374.018 197.389Z" fill="#36B033"/>
<path opacity="0.998" fill-rule="evenodd" clip-rule="evenodd" d="M693.018 136.389C693.351 155.068 693.018 173.734 692.018 192.389C689.018 194.222 686.018 196.056 683.018 197.889C686.018 199.722 689.018 201.556 692.018 203.389C692.964 235.727 693.464 268.061 693.518 300.389C689.851 302.722 686.185 305.056 682.518 307.389C682.018 316.383 681.852 325.383 682.018 334.389C678.245 336.11 674.579 338.11 671.018 340.389C670.186 349.705 669.686 359.038 669.518 368.389C665.937 370.263 662.437 372.263 659.018 374.389C658.19 379.021 657.69 383.687 657.518 388.389C650.208 393.125 642.708 397.458 635.018 401.389C634.193 397.242 633.693 392.908 633.518 388.389C630.147 390.589 626.647 392.589 623.018 394.389C622.351 376.722 621.685 359.056 621.018 341.389C617.117 343.497 613.451 345.83 610.018 348.389C606.351 350.389 602.685 352.389 599.018 354.389C599.35 345.364 599.016 336.364 598.018 327.389C594.117 329.497 590.451 331.83 587.018 334.389C583.351 336.389 579.685 338.389 576.018 340.389C575.193 336.242 574.693 331.908 574.518 327.389C571.019 329.137 567.686 331.137 564.518 333.389C563.685 319.71 563.852 306.043 565.018 292.389C568.269 290.514 571.436 288.514 574.518 286.389C574.69 281.687 575.19 277.021 576.018 272.389C579.647 270.589 583.147 268.589 586.518 266.389C586.851 261.722 587.185 257.056 587.518 252.389C606.851 241.056 626.185 229.722 645.518 218.389C645.851 227.389 646.185 236.389 646.518 245.389C649.851 243.389 653.185 241.389 656.518 239.389C656.69 243.76 657.19 248.093 658.018 252.389C661.935 250.181 665.768 247.848 669.518 245.389C670.017 241.068 670.184 236.735 670.018 232.389C665.887 233.705 662.054 235.705 658.518 238.389C657.851 229.389 657.851 220.389 658.518 211.389C665.687 206.804 673.02 202.47 680.518 198.389C681.185 193.722 681.185 189.056 680.518 184.389C668.374 191.037 656.541 198.037 645.018 205.389C641.649 207.404 638.316 209.404 635.018 211.389C633.706 206.874 633.706 202.207 635.018 197.389C638.647 195.589 642.147 193.589 645.518 191.389C646.342 182.213 646.175 173.213 645.018 164.389C645.018 164.056 645.018 163.722 645.018 163.389C661.314 154.908 677.314 145.908 693.018 136.389Z" fill="#35AF30"/>
<path opacity="0.99" fill-rule="evenodd" clip-rule="evenodd" d="M256.018 211.389C259.906 213.586 263.74 215.919 267.518 218.389C267.689 223.091 268.189 227.757 269.018 232.389C272.351 234.389 275.684 236.389 279.018 238.389C279.846 243.021 280.346 247.687 280.518 252.389C288.184 257.056 295.851 261.722 303.518 266.389C303.689 271.091 304.189 275.757 305.018 280.389C308.269 282.264 311.435 284.264 314.518 286.389C314.689 291.091 315.189 295.757 316.018 300.389C319.351 302.389 322.685 304.389 326.018 306.389C326.85 315.705 327.35 325.038 327.518 334.389C331.099 336.263 334.599 338.263 338.018 340.389C338.85 349.705 339.35 359.038 339.518 368.389C342.889 370.589 346.389 372.589 350.018 374.389C350.685 393.056 351.351 411.722 352.018 430.389C355.647 432.189 359.147 434.189 362.518 436.389C363.333 441.241 363.166 445.908 362.018 450.389C335.019 434.22 307.685 418.553 280.018 403.389C281.129 398.473 281.295 393.473 280.518 388.389C276.936 386.515 273.436 384.515 270.018 382.389C269.351 377.389 268.684 372.389 268.018 367.389C264.229 364.926 260.229 362.926 256.018 361.389C256.018 311.389 256.018 261.389 256.018 211.389Z" fill="#0EAEFE"/>
<path opacity="0.998" fill-rule="evenodd" clip-rule="evenodd" d="M375.018 212.389C403.793 228.613 432.46 245.113 461.018 261.889C463.827 263.63 466.827 264.797 470.018 265.389C469.021 347.318 468.688 429.318 469.018 511.389C449.513 500.136 429.846 489.136 410.018 478.389C410.018 464.389 410.018 450.389 410.018 436.389C413.907 438.586 417.74 440.919 421.518 443.389C421.917 443.161 422.083 442.827 422.018 442.389C426.191 441.052 430.024 439.052 433.518 436.389C433.851 431.722 434.185 427.056 434.518 422.389C437.889 420.189 441.389 418.189 445.018 416.389C446.351 402.389 446.351 388.389 445.018 374.389C425.854 363.642 406.854 352.642 388.018 341.389C387.19 336.757 386.69 332.091 386.518 327.389C378.851 322.722 371.185 318.056 363.518 313.389C363.346 308.687 362.846 304.021 362.018 299.389C358.685 297.389 355.351 295.389 352.018 293.389C351.025 288.769 350.691 284.103 351.018 279.389C354.791 277.668 358.457 275.668 362.018 273.389C363.017 259.405 363.351 245.405 363.018 231.389C367.191 230.052 371.024 228.052 374.518 225.389C375.017 221.068 375.184 216.735 375.018 212.389Z" fill="#0EAEFE"/>
<path fill-rule="evenodd" clip-rule="evenodd" d="M645.018 164.389C646.175 173.213 646.342 182.213 645.518 191.389C642.147 193.589 638.647 195.589 635.018 197.389C633.706 202.207 633.706 206.874 635.018 211.389C638.049 213.724 641.383 215.724 645.018 217.389C646.327 213.24 646.327 209.24 645.018 205.389C656.541 198.037 668.374 191.037 680.518 184.389C681.185 189.056 681.185 193.722 680.518 198.389C673.02 202.47 665.687 206.804 658.518 211.389C657.851 220.389 657.851 229.389 658.518 238.389C662.054 235.705 665.887 233.705 670.018 232.389C670.184 236.735 670.017 241.068 669.518 245.389C665.768 247.848 661.935 250.181 658.018 252.389C657.19 248.093 656.69 243.76 656.518 239.389C653.185 241.389 649.851 243.389 646.518 245.389C646.185 236.389 645.851 227.389 645.518 218.389C626.185 229.722 606.851 241.056 587.518 252.389C587.185 257.056 586.851 261.722 586.518 266.389C583.147 268.589 579.647 270.589 576.018 272.389C575.19 277.021 574.69 281.687 574.518 286.389C571.436 288.514 568.269 290.514 565.018 292.389C563.852 306.043 563.685 319.71 564.518 333.389C567.686 331.137 571.019 329.137 574.518 327.389C574.693 331.908 575.193 336.242 576.018 340.389C575.621 341.414 574.955 341.581 574.018 340.889C566.435 336.515 558.935 332.015 551.518 327.389C550.851 313.722 550.851 300.056 551.518 286.389C555.185 284.056 558.851 281.722 562.518 279.389C562.69 274.687 563.19 270.021 564.018 265.389C567.351 263.389 570.685 261.389 574.018 259.389C574.846 254.757 575.346 250.091 575.518 245.389C586.602 238.596 597.769 231.93 609.018 225.389C605.677 222.893 602.177 220.56 598.518 218.389C598.018 209.729 597.852 201.062 598.018 192.389C600.597 189.754 603.597 187.588 607.018 185.889C608.543 184.88 610.21 184.38 612.018 184.389C615.064 187.001 618.564 189.001 622.518 190.389C625.923 188.436 629.423 186.602 633.018 184.889C633.985 180.488 634.318 175.988 634.018 171.389C634.018 171.056 634.018 170.722 634.018 170.389C637.525 168.135 641.191 166.135 645.018 164.389Z" fill="#268E1B"/>
<path fill-rule="evenodd" clip-rule="evenodd" d="M645.018 205.389C646.327 209.24 646.327 213.24 645.018 217.389C641.383 215.724 638.049 213.724 635.018 211.389C638.316 209.404 641.649 207.404 645.018 205.389Z" fill="#1C91D1"/>
<path fill-rule="evenodd" clip-rule="evenodd" d="M622.018 205.389C625.791 207.11 629.457 209.11 633.018 211.389C629.492 213.983 625.826 216.316 622.018 218.389C622.018 214.056 622.018 209.722 622.018 205.389Z" fill="#1C92D3"/>
<path fill-rule="evenodd" clip-rule="evenodd" d="M622.018 205.389C622.018 209.722 622.018 214.056 622.018 218.389C618.406 220.161 614.906 222.161 611.518 224.389C610.851 215.389 610.851 206.389 611.518 197.389C615.017 195.641 618.35 193.641 621.518 191.389C622.017 196.044 622.184 200.71 622.018 205.389Z" fill="#35AF2F"/>
<path fill-rule="evenodd" clip-rule="evenodd" d="M363.018 231.389C363.351 245.405 363.017 259.405 362.018 273.389C358.457 275.668 354.791 277.668 351.018 279.389C350.685 261.377 351.018 243.377 352.018 225.389C355.579 227.668 359.245 229.668 363.018 231.389Z" fill="#36B030"/>
<path opacity="0.999" fill-rule="evenodd" clip-rule="evenodd" d="M351.018 279.389C350.691 284.103 351.025 288.769 352.018 293.389C355.351 295.389 358.685 297.389 362.018 299.389C362.846 304.021 363.346 308.687 363.518 313.389C371.185 318.056 378.851 322.722 386.518 327.389C386.69 332.091 387.19 336.757 388.018 341.389C406.854 352.642 425.854 363.642 445.018 374.389C446.351 388.389 446.351 402.389 445.018 416.389C441.389 418.189 437.889 420.189 434.518 422.389C434.185 427.056 433.851 431.722 433.518 436.389C430.024 439.052 426.191 441.052 422.018 442.389C421.687 433.697 422.02 425.03 423.018 416.389C426.179 417.802 429.179 419.469 432.018 421.389C433.184 408.068 433.351 394.735 432.518 381.389C413.02 370.308 393.687 358.975 374.518 347.389C374.346 342.687 373.846 338.021 373.018 333.389C366.181 329.136 359.181 325.136 352.018 321.389C351.351 316.389 350.685 311.389 350.018 306.389C346.599 304.263 343.099 302.263 339.518 300.389C339.018 291.395 338.852 282.395 339.018 273.389C343.259 274.843 347.259 276.843 351.018 279.389Z" fill="#36B033"/>
<path fill-rule="evenodd" clip-rule="evenodd" d="M599.018 354.389C595.16 352.542 591.326 350.542 587.518 348.389C587.019 343.734 586.852 339.068 587.018 334.389C590.451 331.83 594.117 329.497 598.018 327.389C599.016 336.364 599.35 345.364 599.018 354.389Z" fill="#268E1A"/>
<path fill-rule="evenodd" clip-rule="evenodd" d="M635.017 401.389C634.957 401.932 634.624 402.265 634.017 402.389C626.101 397.848 618.268 393.182 610.517 388.389C610.017 375.06 609.85 361.726 610.017 348.389C613.45 345.83 617.116 343.497 621.017 341.389C621.684 359.056 622.35 376.722 623.017 394.389C626.646 392.589 630.146 390.589 633.517 388.389C633.692 392.908 634.192 397.242 635.017 401.389Z" fill="#268E1B"/>
<path opacity="0.979" fill-rule="evenodd" clip-rule="evenodd" d="M256.018 361.389C260.229 362.926 264.229 364.926 268.018 367.389C268.684 372.389 269.351 377.389 270.018 382.389C273.436 384.515 276.936 386.515 280.518 388.389C281.295 393.473 281.129 398.473 280.018 403.389C275.991 405.402 271.991 407.402 268.018 409.389C268.183 404.71 268.017 400.044 267.518 395.389C263.851 393.056 260.184 390.722 256.518 388.389C256.184 383.722 255.851 379.056 255.518 374.389C251.521 372.652 248.021 370.319 245.018 367.389C248.551 365.123 252.218 363.123 256.018 361.389Z" fill="#36B033"/>
<path opacity="0.93" fill-rule="evenodd" clip-rule="evenodd" d="M245.018 367.389C248.022 370.319 251.522 372.652 255.518 374.389C255.851 379.056 256.184 383.722 256.518 388.389C260.184 390.722 263.851 393.056 267.518 395.389C268.017 400.044 268.183 404.71 268.018 409.389C260.129 404.86 252.296 400.193 244.518 395.389C243.693 385.88 243.86 376.546 245.018 367.389Z" fill="#4CD628"/>
<path opacity="0.989" fill-rule="evenodd" clip-rule="evenodd" d="M410.018 436.389C410.018 450.389 410.018 464.389 410.018 478.389C406.045 480.376 402.045 482.376 398.018 484.389C397.685 466.044 398.018 447.71 399.018 429.389C402.919 431.497 406.585 433.83 410.018 436.389Z" fill="#36B02F"/>
<path fill-rule="evenodd" clip-rule="evenodd" d="M56.037 457.089H24V319.389H213.507V457.089H182.737V361.159H134.772V457.089H103.821V361.159H56.037V457.089ZM68.037 373.159V469.089H12V307.389H274.516V402.052H297.214V307.389H576.805V338.159H599.72V307.389H925.946V469.089H790.088V373.159H750.205V469.089H694.349V373.159H654.49V469.089H425.009V373.159H401.225V469.089H170.737V373.159H146.772V469.089H91.821V373.159H68.037ZM389.225 361.159H437.009V457.089H469.046V319.389H357.188V457.089H389.225V361.159ZM309.214 319.389H341.251V457.089H229.393V319.389H262.516V414.052H309.214V319.389ZM564.805 319.389V350.159H595.756V457.089H484.984V319.389H564.805ZM552.805 373.159H529.021V402.052H552.805V373.159ZM738.205 457.089H706.349V361.159H658.384V319.389H786.17V361.159H738.205V457.089ZM835.211 361.159H881.909V414.052H835.211V361.159ZM847.211 402.052H869.909V373.159H847.211V402.052ZM564.805 414.052V361.159H517.021V414.052H564.805ZM611.72 319.389H642.49V457.089H611.72V319.389ZM913.946 319.389V457.089H802.088V319.389H913.946Z" fill="#2B2832"/>
<path d="M56.037 361.159V457.089H24V330.389H213.507V457.089H182.737V361.159H134.772V457.089H103.821V361.159H56.037Z" fill="#E2947B"/>
<path d="M341.251 330.389V457.089H229.393V330.389H262.516V425.052H309.214V330.389H341.251Z" fill="#E2947B"/>
<path d="M469.046 330.389V457.089H437.009V361.159H389.225V457.089H357.188V330.389H469.046Z" fill="#E2947B"/>
<path d="M595.756 361.159V457.089H484.984V330.389H564.805V361.159H517.021V425.052H564.805V361.159H595.756Z" fill="#E2947B"/>
<path d="M611.72 457.089V330.389H642.49V457.089H611.72Z" fill="#E2947B"/>
<path d="M658.384 361.159V330.389H786.17V361.159H738.205V457.089H706.349V361.159H658.384Z" fill="#E2947B"/>
<path d="M802.088 330.389H913.946V457.089H802.088V330.389ZM881.909 425.052V361.159H835.211V425.052H881.909Z" fill="#E2947B"/>
<path d="M56.037 350.159V446.089H24V319.389H213.507V446.089H182.737V350.159H134.772V446.089H103.821V350.159H56.037Z" fill="#FEFEFE"/>
<path d="M341.251 319.389V446.089H229.393V319.389H262.516V414.052H309.214V319.389H341.251Z" fill="#FEFEFE"/>
<path d="M469.046 319.389V446.089H437.009V350.159H389.225V446.089H357.188V319.389H469.046Z" fill="#FEFEFE"/>
<path d="M595.756 350.159V446.089H484.984V319.389H564.805V350.159H517.021V414.052H564.805V350.159H595.756Z" fill="#FEFEFE"/>
<path d="M611.72 446.089V319.389H642.49V446.089H611.72Z" fill="#FEFEFE"/>
<path d="M658.384 350.159V319.389H786.17V350.159H738.205V446.089H706.349V350.159H658.384Z" fill="#FEFEFE"/>
<path d="M802.088 319.389H913.946V446.089H802.088V319.389ZM881.909 414.052V350.159H835.211V414.052H881.909Z" fill="#FEFEFE"/>
</svg>
